<?xml version="1.0" encoding="UTF-8" standalone="no"?><!DOCTYPE svg PUBLIC "-//W3C//DTD SVG 1.1//EN" "http://www.w3.org/Graphics/SVG/1.1/DTD/svg11.dtd"><!-- Generated by graphviz version 2.40.1 (20161225.0304)
 --><!-- Title: %0 Pages: 1 --><svg xmlns="http://www.w3.org/2000/svg" xmlns:xlink="http://www.w3.org/1999/xlink" width="134pt" height="264pt" viewBox="0.00 0.00 134.00 264.00">
<g id="graph0" class="graph" transform="scale(1 1) rotate(0) translate(4 260)">
<title>%0</title>
<polygon fill="#ffffff" stroke="transparent" points="-4,4 -4,-260 130,-260 130,4 -4,4"/>
<!-- 824634777728 -->
<g id="node1" class="node">
<title>824634777728</title>
<path fill="#add8e6" stroke="#add8e6" d="M12,-146.5C12,-146.5 42,-146.5 42,-146.5 48,-146.5 54,-152.5 54,-158.5 54,-158.5 54,-170.5 54,-170.5 54,-176.5 48,-182.5 42,-182.5 42,-182.5 12,-182.5 12,-182.5 6,-182.5 0,-176.5 0,-170.5 0,-170.5 0,-158.5 0,-158.5 0,-152.5 6,-146.5 12,-146.5"/>
<text text-anchor="middle" x="27" y="-160.3" font-family="Times,serif" font-size="14.00" fill="#000000">2</text>
</g>
<!-- 824634777856 -->
<g id="node2" class="node">
<title>824634777856</title>
<path fill="#add8e6" stroke="#add8e6" d="M48,-73.5C48,-73.5 78,-73.5 78,-73.5 84,-73.5 90,-79.5 90,-85.5 90,-85.5 90,-97.5 90,-97.5 90,-103.5 84,-109.5 78,-109.5 78,-109.5 48,-109.5 48,-109.5 42,-109.5 36,-103.5 36,-97.5 36,-97.5 36,-85.5 36,-85.5 36,-79.5 42,-73.5 48,-73.5"/>
<text text-anchor="middle" x="63" y="-87.3" font-family="Times,serif" font-size="14.00" fill="#000000">4</text>
</g>
<!-- 824634777728&#45;&gt;824634777856 -->
<g id="edge1" class="edge">
<title>824634777728-&gt;824634777856</title>
<path fill="none" stroke="#000000" d="M35.8989,-146.4551C40.0095,-138.1196 44.9795,-128.0416 49.5349,-118.8042"/>
<polygon fill="#000000" stroke="#000000" points="52.7948,-120.1071 54.0787,-109.5904 46.5167,-117.011 52.7948,-120.1071"/>
</g>
<!-- 824634777920 -->
<g id="node4" class="node">
<title>824634777920</title>
<path fill="#add8e6" stroke="#add8e6" d="M48,-.5C48,-.5 78,-.5 78,-.5 84,-.5 90,-6.5 90,-12.5 90,-12.5 90,-24.5 90,-24.5 90,-30.5 84,-36.5 78,-36.5 78,-36.5 48,-36.5 48,-36.5 42,-36.5 36,-30.5 36,-24.5 36,-24.5 36,-12.5 36,-12.5 36,-6.5 42,-.5 48,-.5"/>
<text text-anchor="middle" x="63" y="-14.3" font-family="Times,serif" font-size="14.00" fill="#000000">5</text>
</g>
<!-- 824634777856&#45;&gt;824634777920 -->
<g id="edge3" class="edge">
<title>824634777856-&gt;824634777920</title>
<path fill="none" stroke="#000000" d="M63,-73.4551C63,-65.3828 63,-55.6764 63,-46.6817"/>
<polygon fill="#000000" stroke="#000000" points="66.5001,-46.5903 63,-36.5904 59.5001,-46.5904 66.5001,-46.5903"/>
</g>
<!-- 824634777792 -->
<g id="node3" class="node">
<title>824634777792</title>
<path fill="#add8e6" stroke="#add8e6" d="M84,-146.5C84,-146.5 114,-146.5 114,-146.5 120,-146.5 126,-152.5 126,-158.5 126,-158.5 126,-170.5 126,-170.5 126,-176.5 120,-182.5 114,-182.5 114,-182.5 84,-182.5 84,-182.5 78,-182.5 72,-176.5 72,-170.5 72,-170.5 72,-158.5 72,-158.5 72,-152.5 78,-146.5 84,-146.5"/>
<text text-anchor="middle" x="99" y="-160.3" font-family="Times,serif" font-size="14.00" fill="#000000">3</text>
</g>
<!-- 824634777792&#45;&gt;824634777856 -->
<g id="edge2" class="edge">
<title>824634777792-&gt;824634777856</title>
<path fill="none" stroke="#000000" d="M90.1011,-146.4551C85.9905,-138.1196 81.0205,-128.0416 76.4651,-118.8042"/>
<polygon fill="#000000" stroke="#000000" points="79.4833,-117.011 71.9213,-109.5904 73.2052,-120.1071 79.4833,-117.011"/>
</g>
<!-- 824634777664 -->
<g id="node5" class="node">
<title>824634777664</title>
<path fill="#add8e6" stroke="#add8e6" d="M48,-219.5C48,-219.5 78,-219.5 78,-219.5 84,-219.5 90,-225.5 90,-231.5 90,-231.5 90,-243.5 90,-243.5 90,-249.5 84,-255.5 78,-255.5 78,-255.5 48,-255.5 48,-255.5 42,-255.5 36,-249.5 36,-243.5 36,-243.5 36,-231.5 36,-231.5 36,-225.5 42,-219.5 48,-219.5"/>
<text text-anchor="middle" x="63" y="-233.3" font-family="Times,serif" font-size="14.00" fill="#000000">1</text>
</g>
<!-- 824634777664&#45;&gt;824634777728 -->
<g id="edge4" class="edge">
<title>824634777664-&gt;824634777728</title>
<path fill="none" stroke="#000000" d="M54.1011,-219.4551C49.9905,-211.1196 45.0205,-201.0416 40.4651,-191.8042"/>
<polygon fill="#000000" stroke="#000000" points="43.4833,-190.011 35.9213,-182.5904 37.2052,-193.1071 43.4833,-190.011"/>
</g>
<!-- 824634777664&#45;&gt;824634777792 -->
<g id="edge5" class="edge">
<title>824634777664-&gt;824634777792</title>
<path fill="none" stroke="#000000" d="M71.8989,-219.4551C76.0095,-211.1196 80.9795,-201.0416 85.5349,-191.8042"/>
<polygon fill="#000000" stroke="#000000" points="88.7948,-193.1071 90.0787,-182.5904 82.5167,-190.011 88.7948,-193.1071"/>
</g>
</g>
</svg>