<?xml version="1.0" encoding="UTF-8" standalone="no"?><!DOCTYPE svg PUBLIC "-//W3C//DTD SVG 1.1//EN" "http://www.w3.org/Graphics/SVG/1.1/DTD/svg11.dtd"><!-- Generated by graphviz version 2.40.1 (20161225.0304)
 --><!-- Title: g Pages: 1 --><svg xmlns="http://www.w3.org/2000/svg" xmlns:xlink="http://www.w3.org/1999/xlink" width="455pt" height="205pt" viewBox="0.00 0.00 454.86 205.43">
<g id="graph0" class="graph" transform="scale(1 1) rotate(0) translate(4 201.4282)">
<title>g</title>
<polygon fill="#ffffff" stroke="transparent" points="-4,4 -4,-201.4282 450.8564,-201.4282 450.8564,4 -4,4"/>
<!-- 1 -->
<g id="node1" class="node">
<title>1</title>
<path fill="#add8e6" stroke="#add8e6" d="M12,-80.7141C12,-80.7141 42,-80.7141 42,-80.7141 48,-80.7141 54,-86.7141 54,-92.7141 54,-92.7141 54,-104.7141 54,-104.7141 54,-110.7141 48,-116.7141 42,-116.7141 42,-116.7141 12,-116.7141 12,-116.7141 6,-116.7141 0,-110.7141 0,-104.7141 0,-104.7141 0,-92.7141 0,-92.7141 0,-86.7141 6,-80.7141 12,-80.7141"/>
<text text-anchor="middle" x="27" y="-94.5141" font-family="Times,serif" font-size="14.00" fill="#000000">1</text>
</g>
<!-- 2 -->
<g id="node2" class="node">
<title>2</title>
<path fill="#add8e6" stroke="#add8e6" d="M92.2141,-160.9282C92.2141,-160.9282 122.2141,-160.9282 122.2141,-160.9282 128.2141,-160.9282 134.2141,-166.9282 134.2141,-172.9282 134.2141,-172.9282 134.2141,-184.9282 134.2141,-184.9282 134.2141,-190.9282 128.2141,-196.9282 122.2141,-196.9282 122.2141,-196.9282 92.2141,-196.9282 92.2141,-196.9282 86.2141,-196.9282 80.2141,-190.9282 80.2141,-184.9282 80.2141,-184.9282 80.2141,-172.9282 80.2141,-172.9282 80.2141,-166.9282 86.2141,-160.9282 92.2141,-160.9282"/>
<text text-anchor="middle" x="107.2141" y="-174.7282" font-family="Times,serif" font-size="14.00" fill="#000000">2</text>
</g>
<!-- 1&#45;&#45;2 -->
<g id="edge1" class="edge">
<title>1--2</title>
<path fill="none" stroke="#000000" d="M45.2018,-116.9159C58.3293,-130.0434 75.9733,-147.6874 89.0843,-160.7984"/>
<text text-anchor="middle" x="63.6431" y="-143.0572" font-family="Times,serif" font-size="14.00" fill="#000000">2</text>
</g>
<!-- 3 -->
<g id="node3" class="node">
<title>3</title>
<path fill="#add8e6" stroke="#add8e6" d="M92.2141,-.5C92.2141,-.5 122.2141,-.5 122.2141,-.5 128.2141,-.5 134.2141,-6.5 134.2141,-12.5 134.2141,-12.5 134.2141,-24.5 134.2141,-24.5 134.2141,-30.5 128.2141,-36.5 122.2141,-36.5 122.2141,-36.5 92.2141,-36.5 92.2141,-36.5 86.2141,-36.5 80.2141,-30.5 80.2141,-24.5 80.2141,-24.5 80.2141,-12.5 80.2141,-12.5 80.2141,-6.5 86.2141,-.5 92.2141,-.5"/>
<text text-anchor="middle" x="107.2141" y="-14.3" font-family="Times,serif" font-size="14.00" fill="#000000">3</text>
</g>
<!-- 1&#45;&#45;3 -->
<g id="edge2" class="edge">
<title>1--3</title>
<path fill="none" stroke="#000000" d="M45.2018,-80.5123C58.3293,-67.3847 75.9733,-49.7407 89.0843,-36.6298"/>
<text text-anchor="middle" x="63.6431" y="-62.771" font-family="Times,serif" font-size="14.00" fill="#000000">6</text>
</g>
<!-- 2&#45;&#45;3 -->
<g id="edge3" class="edge">
<title>2--3</title>
<path fill="none" stroke="#000000" d="M107.2141,-160.8369C107.2141,-130.0254 107.2141,-67.7051 107.2141,-36.7713"/>
<text text-anchor="middle" x="103.7141" y="-103.0041" font-family="Times,serif" font-size="14.00" fill="#000000">7</text>
</g>
<!-- 4 -->
<g id="node4" class="node">
<title>4</title>
<path fill="#add8e6" stroke="#add8e6" d="M172.4282,-80.7141C172.4282,-80.7141 202.4282,-80.7141 202.4282,-80.7141 208.4282,-80.7141 214.4282,-86.7141 214.4282,-92.7141 214.4282,-92.7141 214.4282,-104.7141 214.4282,-104.7141 214.4282,-110.7141 208.4282,-116.7141 202.4282,-116.7141 202.4282,-116.7141 172.4282,-116.7141 172.4282,-116.7141 166.4282,-116.7141 160.4282,-110.7141 160.4282,-104.7141 160.4282,-104.7141 160.4282,-92.7141 160.4282,-92.7141 160.4282,-86.7141 166.4282,-80.7141 172.4282,-80.7141"/>
<text text-anchor="middle" x="187.4282" y="-94.5141" font-family="Times,serif" font-size="14.00" fill="#000000">4</text>
</g>
<!-- 2&#45;&#45;4 -->
<g id="edge4" class="edge">
<title>2--4</title>
<path fill="none" stroke="#000000" d="M125.4159,-160.7264C138.5434,-147.5988 156.1874,-129.9548 169.2984,-116.8439"/>
<text text-anchor="middle" x="143.8572" y="-142.9851" font-family="Times,serif" font-size="14.00" fill="#000000">3</text>
</g>
<!-- 3&#45;&#45;4 -->
<g id="edge5" class="edge">
<title>3--4</title>
<path fill="none" stroke="#000000" d="M125.4159,-36.7018C138.5434,-49.8293 156.1874,-67.4733 169.2984,-80.5843"/>
<text text-anchor="middle" x="143.8572" y="-62.8431" font-family="Times,serif" font-size="14.00" fill="#000000">4</text>
</g>
<!-- 5 -->
<g id="node5" class="node">
<title>5</title>
<path fill="#add8e6" stroke="#add8e6" d="M244.4282,-80.7141C244.4282,-80.7141 274.4282,-80.7141 274.4282,-80.7141 280.4282,-80.7141 286.4282,-86.7141 286.4282,-92.7141 286.4282,-92.7141 286.4282,-104.7141 286.4282,-104.7141 286.4282,-110.7141 280.4282,-116.7141 274.4282,-116.7141 274.4282,-116.7141 244.4282,-116.7141 244.4282,-116.7141 238.4282,-116.7141 232.4282,-110.7141 232.4282,-104.7141 232.4282,-104.7141 232.4282,-92.7141 232.4282,-92.7141 232.4282,-86.7141 238.4282,-80.7141 244.4282,-80.7141"/>
<text text-anchor="middle" x="259.4282" y="-94.5141" font-family="Times,serif" font-size="14.00" fill="#000000">5</text>
</g>
<!-- 4&#45;&#45;5 -->
<g id="edge6" class="edge">
<title>4--5</title>
<path fill="none" stroke="#000000" d="M214.6483,-98.7141C220.3827,-98.7141 226.4337,-98.7141 232.1696,-98.7141"/>
<text text-anchor="middle" x="219.9089" y="-102.9141" font-family="Times,serif" font-size="14.00" fill="#000000">9</text>
</g>
<!-- 6 -->
<g id="node6" class="node">
<title>6</title>
<path fill="#add8e6" stroke="#add8e6" d="M324.6423,-160.9282C324.6423,-160.9282 354.6423,-160.9282 354.6423,-160.9282 360.6423,-160.9282 366.6423,-166.9282 366.6423,-172.9282 366.6423,-172.9282 366.6423,-184.9282 366.6423,-184.9282 366.6423,-190.9282 360.6423,-196.9282 354.6423,-196.9282 354.6423,-196.9282 324.6423,-196.9282 324.6423,-196.9282 318.6423,-196.9282 312.6423,-190.9282 312.6423,-184.9282 312.6423,-184.9282 312.6423,-172.9282 312.6423,-172.9282 312.6423,-166.9282 318.6423,-160.9282 324.6423,-160.9282"/>
<text text-anchor="middle" x="339.6423" y="-174.7282" font-family="Times,serif" font-size="14.00" fill="#000000">6</text>
</g>
<!-- 5&#45;&#45;6 -->
<g id="edge7" class="edge">
<title>5--6</title>
<path fill="none" stroke="#000000" d="M277.63,-116.9159C290.7575,-130.0434 308.4015,-147.6874 321.5125,-160.7984"/>
<text text-anchor="middle" x="292.5712" y="-143.0572" font-family="Times,serif" font-size="14.00" fill="#000000">11</text>
</g>
<!-- 7 -->
<g id="node7" class="node">
<title>7</title>
<path fill="#add8e6" stroke="#add8e6" d="M324.6423,-.5C324.6423,-.5 354.6423,-.5 354.6423,-.5 360.6423,-.5 366.6423,-6.5 366.6423,-12.5 366.6423,-12.5 366.6423,-24.5 366.6423,-24.5 366.6423,-30.5 360.6423,-36.5 354.6423,-36.5 354.6423,-36.5 324.6423,-36.5 324.6423,-36.5 318.6423,-36.5 312.6423,-30.5 312.6423,-24.5 312.6423,-24.5 312.6423,-12.5 312.6423,-12.5 312.6423,-6.5 318.6423,-.5 324.6423,-.5"/>
<text text-anchor="middle" x="339.6423" y="-14.3" font-family="Times,serif" font-size="14.00" fill="#000000">7</text>
</g>
<!-- 5&#45;&#45;7 -->
<g id="edge8" class="edge">
<title>5--7</title>
<path fill="none" stroke="#000000" d="M277.63,-80.5123C290.7575,-67.3847 308.4015,-49.7407 321.5125,-36.6298"/>
<text text-anchor="middle" x="296.0712" y="-62.771" font-family="Times,serif" font-size="14.00" fill="#000000">4</text>
</g>
<!-- 6&#45;&#45;7 -->
<g id="edge9" class="edge">
<title>6--7</title>
<path fill="none" stroke="#000000" d="M339.6423,-160.8369C339.6423,-130.0254 339.6423,-67.7051 339.6423,-36.7713"/>
<text text-anchor="middle" x="336.1423" y="-103.0041" font-family="Times,serif" font-size="14.00" fill="#000000">6</text>
</g>
<!-- 8 -->
<g id="node8" class="node">
<title>8</title>
<path fill="#add8e6" stroke="#add8e6" d="M404.8564,-80.7141C404.8564,-80.7141 434.8564,-80.7141 434.8564,-80.7141 440.8564,-80.7141 446.8564,-86.7141 446.8564,-92.7141 446.8564,-92.7141 446.8564,-104.7141 446.8564,-104.7141 446.8564,-110.7141 440.8564,-116.7141 434.8564,-116.7141 434.8564,-116.7141 404.8564,-116.7141 404.8564,-116.7141 398.8564,-116.7141 392.8564,-110.7141 392.8564,-104.7141 392.8564,-104.7141 392.8564,-92.7141 392.8564,-92.7141 392.8564,-86.7141 398.8564,-80.7141 404.8564,-80.7141"/>
<text text-anchor="middle" x="419.8564" y="-94.5141" font-family="Times,serif" font-size="14.00" fill="#000000">8</text>
</g>
<!-- 6&#45;&#45;8 -->
<g id="edge10" class="edge">
<title>6--8</title>
<path fill="none" stroke="#000000" d="M357.8441,-160.7264C370.9716,-147.5988 388.6156,-129.9548 401.7266,-116.8439"/>
<text text-anchor="middle" x="376.2853" y="-142.9851" font-family="Times,serif" font-size="14.00" fill="#000000">5</text>
</g>
<!-- 7&#45;&#45;8 -->
<g id="edge11" class="edge">
<title>7--8</title>
<path fill="none" stroke="#000000" d="M357.8441,-36.7018C370.9716,-49.8293 388.6156,-67.4733 401.7266,-80.5843"/>
<text text-anchor="middle" x="376.2853" y="-62.8431" font-family="Times,serif" font-size="14.00" fill="#000000">8</text>
</g>
</g>
</svg>