<?xml version="1.0" encoding="UTF-8" standalone="no"?><!DOCTYPE svg PUBLIC "-//W3C//DTD SVG 1.1//EN" "http://www.w3.org/Graphics/SVG/1.1/DTD/svg11.dtd"><!-- Generated by graphviz version 2.40.1 (20161225.0304)
 --><!-- Title: %0 Pages: 1 --><svg xmlns="http://www.w3.org/2000/svg" xmlns:xlink="http://www.w3.org/1999/xlink" width="239pt" height="144pt" viewBox="0.00 0.00 239.36 144.21">
<g id="graph0" class="graph" transform="scale(1 1) rotate(0) translate(4 140.2101)">
<title>%0</title>
<polygon fill="#ffffff" stroke="transparent" points="-4,4 -4,-140.2101 235.3634,-140.2101 235.3634,4 -4,4"/>
<!-- 824634777792 -->
<g id="node1" class="node">
<title>824634777792</title>
<path fill="#add8e6" stroke="#add8e6" d="M45.3008,-.5C45.3008,-.5 75.3008,-.5 75.3008,-.5 81.3008,-.5 87.3008,-6.5 87.3008,-12.5 87.3008,-12.5 87.3008,-24.5 87.3008,-24.5 87.3008,-30.5 81.3008,-36.5 75.3008,-36.5 75.3008,-36.5 45.3008,-36.5 45.3008,-36.5 39.3008,-36.5 33.3008,-30.5 33.3008,-24.5 33.3008,-24.5 33.3008,-12.5 33.3008,-12.5 33.3008,-6.5 39.3008,-.5 45.3008,-.5"/>
<text text-anchor="middle" x="60.3008" y="-14.3" font-family="Times,serif" font-size="14.00" fill="#000000">3</text>
</g>
<!-- 824634777664 -->
<g id="node2" class="node">
<title>824634777664</title>
<path fill="#add8e6" stroke="#add8e6" d="M12,-71.8929C12,-71.8929 42,-71.8929 42,-71.8929 48,-71.8929 54,-77.8929 54,-83.8929 54,-83.8929 54,-95.8929 54,-95.8929 54,-101.8929 48,-107.8929 42,-107.8929 42,-107.8929 12,-107.8929 12,-107.8929 6,-107.8929 0,-101.8929 0,-95.8929 0,-95.8929 0,-83.8929 0,-83.8929 0,-77.8929 6,-71.8929 12,-71.8929"/>
<text text-anchor="middle" x="27" y="-85.6929" font-family="Times,serif" font-size="14.00" fill="#000000">1</text>
</g>
<!-- 824634777792&#45;&#45;824634777664 -->
<g id="edge1" class="edge">
<title>824634777792--824634777664</title>
<path fill="none" stroke="#000000" d="M51.8976,-36.5154C46.888,-47.2555 40.5458,-60.8523 35.5163,-71.6349"/>
</g>
<!-- 824634777856 -->
<g id="node3" class="node">
<title>824634777856</title>
<path fill="#add8e6" stroke="#add8e6" d="M119.1287,-28.1913C119.1287,-28.1913 149.1287,-28.1913 149.1287,-28.1913 155.1287,-28.1913 161.1287,-34.1913 161.1287,-40.1913 161.1287,-40.1913 161.1287,-52.1913 161.1287,-52.1913 161.1287,-58.1913 155.1287,-64.1913 149.1287,-64.1913 149.1287,-64.1913 119.1287,-64.1913 119.1287,-64.1913 113.1287,-64.1913 107.1287,-58.1913 107.1287,-52.1913 107.1287,-52.1913 107.1287,-40.1913 107.1287,-40.1913 107.1287,-34.1913 113.1287,-28.1913 119.1287,-28.1913"/>
<text text-anchor="middle" x="134.1287" y="-41.9913" font-family="Times,serif" font-size="14.00" fill="#000000">4</text>
</g>
<!-- 824634777792&#45;&#45;824634777856 -->
<g id="edge2" class="edge">
<title>824634777792--824634777856</title>
<path fill="none" stroke="#000000" d="M87.3724,-28.654C93.7923,-31.0619 100.6406,-33.6306 107.0604,-36.0385"/>
</g>
<!-- 824634777728 -->
<g id="node4" class="node">
<title>824634777728</title>
<path fill="#add8e6" stroke="#add8e6" d="M85.6226,-99.7101C85.6226,-99.7101 115.6226,-99.7101 115.6226,-99.7101 121.6226,-99.7101 127.6226,-105.7101 127.6226,-111.7101 127.6226,-111.7101 127.6226,-123.7101 127.6226,-123.7101 127.6226,-129.7101 121.6226,-135.7101 115.6226,-135.7101 115.6226,-135.7101 85.6226,-135.7101 85.6226,-135.7101 79.6226,-135.7101 73.6226,-129.7101 73.6226,-123.7101 73.6226,-123.7101 73.6226,-111.7101 73.6226,-111.7101 73.6226,-105.7101 79.6226,-99.7101 85.6226,-99.7101"/>
<text text-anchor="middle" x="100.6226" y="-113.5101" font-family="Times,serif" font-size="14.00" fill="#000000">2</text>
</g>
<!-- 824634777664&#45;&#45;824634777728 -->
<g id="edge5" class="edge">
<title>824634777664--824634777728</title>
<path fill="none" stroke="#000000" d="M54.4143,-100.251C60.6285,-102.5989 67.2256,-105.0915 73.4305,-107.436"/>
</g>
<!-- 824634777856&#45;&#45;824634777728 -->
<g id="edge3" class="edge">
<title>824634777856--824634777728</title>
<path fill="none" stroke="#000000" d="M125.6737,-64.2385C120.6332,-74.9974 114.2519,-88.6182 109.1914,-99.4199"/>
</g>
<!-- 824634777920 -->
<g id="node5" class="node">
<title>824634777920</title>
<path fill="#add8e6" stroke="#add8e6" d="M189.3634,-1.6696C189.3634,-1.6696 219.3634,-1.6696 219.3634,-1.6696 225.3634,-1.6696 231.3634,-7.6696 231.3634,-13.6696 231.3634,-13.6696 231.3634,-25.6696 231.3634,-25.6696 231.3634,-31.6696 225.3634,-37.6696 219.3634,-37.6696 219.3634,-37.6696 189.3634,-37.6696 189.3634,-37.6696 183.3634,-37.6696 177.3634,-31.6696 177.3634,-25.6696 177.3634,-25.6696 177.3634,-13.6696 177.3634,-13.6696 177.3634,-7.6696 183.3634,-1.6696 189.3634,-1.6696"/>
<text text-anchor="middle" x="204.3634" y="-15.4696" font-family="Times,serif" font-size="14.00" fill="#000000">5</text>
</g>
<!-- 824634777856&#45;&#45;824634777920 -->
<g id="edge4" class="edge">
<title>824634777856--824634777920</title>
<path fill="none" stroke="#000000" d="M161.4843,-35.8613C166.5686,-33.9415 171.8813,-31.9353 176.9668,-30.0149"/>
</g>
</g>
</svg>